<svg width="24" height="27" viewBox="0 0 24 27" fill="none" xmlns="http://www.w3.org/2000/svg">
<g clip-path="url(#clip0_3_198)">
<path d="M19.5736 14.1714C19.5617 11.9741 20.5555 10.3157 22.5672 9.09434C21.4416 7.48382 19.7413 6.59774 17.4961 6.42411C15.3707 6.25647 13.0477 7.66343 12.1976 7.66343C11.2995 7.66343 9.23997 6.48398 7.62346 6.48398C4.28269 6.53786 0.732361 9.14822 0.732361 14.4587C0.732361 16.0273 1.01974 17.6478 1.5945 19.3202C2.36084 21.5175 5.12686 26.9058 8.01262 26.816C9.52136 26.7801 10.5871 25.7443 12.5508 25.7443C14.4547 25.7443 15.4426 26.816 17.1249 26.816C20.0346 26.7741 22.5372 21.8767 23.2676 19.6735C19.3641 17.8354 19.5736 14.2851 19.5736 14.1714ZM16.185 4.34062C17.8194 2.40081 17.6697 0.634628 17.6218 0C16.179 0.0838188 14.5086 0.981877 13.5566 2.08948C12.5089 3.27492 11.8922 4.74175 12.0239 6.39418C13.5866 6.51392 15.0115 5.71165 16.185 4.34062Z" fill="black"/>
</g>
<defs>
<clipPath id="clip0_3_198">
<rect width="24" height="26.9058" fill="white"/>
</clipPath>
</defs>
</svg>
