<svg width="24" height="26" viewBox="0 0 24 26" fill="none" xmlns="http://www.w3.org/2000/svg">
<g clip-path="url(#clip0_6_5395)">
<path d="M24 13.458C24 12.4512 23.9183 11.7165 23.7415 10.9546H12.2449V15.4988H18.9931C18.8571 16.628 18.1224 18.3287 16.4898 19.4715L16.4669 19.6237L20.1019 22.4397L20.3537 22.4648C22.6666 20.3287 24 17.1858 24 13.458Z" fill="#4285F4"/>
<path d="M12.2449 25.4308C15.551 25.4308 18.3265 24.3423 20.3537 22.4648L16.4898 19.4715C15.4558 20.1926 14.068 20.696 12.2449 20.696C9.00682 20.696 6.25854 18.56 5.27886 15.6077L5.13526 15.6199L1.35552 18.545L1.30609 18.6824C3.31968 22.6824 7.45574 25.4308 12.2449 25.4308Z" fill="#34A853"/>
<path d="M5.27886 15.6076C5.02036 14.8457 4.87076 14.0293 4.87076 13.1858C4.87076 12.3423 5.02036 11.526 5.26526 10.7641L5.25841 10.6018L1.43131 7.62964L1.30609 7.6892C0.476196 9.34908 0 11.2131 0 13.1858C0 15.1586 0.476196 17.0225 1.30609 18.6824L5.27886 15.6076Z" fill="#FBBC05"/>
<path d="M12.2449 5.67558C14.5442 5.67558 16.0952 6.66877 16.9796 7.49876L20.4353 4.12459C18.3129 2.15181 15.551 0.940918 12.2449 0.940918C7.45574 0.940918 3.31968 3.6892 1.30609 7.68916L5.26526 10.764C6.25855 7.81166 9.00682 5.67558 12.2449 5.67558Z" fill="#EB4335"/>
</g>
<defs>
<clipPath id="clip0_6_5395">
<rect width="24" height="24.56" fill="white" transform="translate(0 0.905884)"/>
</clipPath>
</defs>
</svg>
