<svg width="567" height="97" viewBox="0 0 567 97" fill="none" xmlns="http://www.w3.org/2000/svg">
<path d="M20.3 7.9C30.7 7.9 38.6667 9.76666 44.2 13.5C49.7333 17.1667 52.5 22.9 52.5 30.7C52.5 35.5667 51.3667 39.5333 49.1 42.6C46.9 45.6 43.7 47.9667 39.5 49.7C40.9 51.4333 42.3667 53.4333 43.9 55.7C45.4333 57.9 46.9333 60.2333 48.4 62.7C49.9333 65.1 51.4 67.6333 52.8 70.3C54.2 72.9 55.5 75.4667 56.7 78H39.2C37.9333 75.7333 36.6333 73.4333 35.3 71.1C34.0333 68.7667 32.7 66.5 31.3 64.3C29.9667 62.1 28.6333 60.0333 27.3 58.1C25.9667 56.1 24.6333 54.3 23.3 52.7H15.6V78H5.66244e-07V9.7C3.4 9.03333 6.9 8.56666 10.5 8.3C14.1667 8.03333 17.4333 7.9 20.3 7.9ZM21.2 21.2C20.0667 21.2 19.0333 21.2333 18.1 21.3C17.2333 21.3667 16.4 21.4333 15.6 21.5V40.3H20C25.8667 40.3 30.0667 39.5667 32.6 38.1C35.1333 36.6333 36.4 34.1333 36.4 30.6C36.4 27.2 35.1 24.8 32.5 23.4C29.9667 21.9333 26.2 21.2 21.2 21.2Z" fill="#7B014C"/>
<path d="M80.5992 78H65.6992V25.4H80.5992V78ZM81.9992 10.2C81.9992 12.9333 81.0992 15.1 79.2992 16.7C77.5659 18.2333 75.4992 19 73.0992 19C70.6992 19 68.5992 18.2333 66.7992 16.7C65.0659 15.1 64.1992 12.9333 64.1992 10.2C64.1992 7.46666 65.0659 5.33333 66.7992 3.8C68.5992 2.2 70.6992 1.4 73.0992 1.4C75.4992 1.4 77.5659 2.2 79.2992 3.8C81.0992 5.33333 81.9992 7.46666 81.9992 10.2ZM107.305 51.3C107.305 55.9 108.339 59.6 110.405 62.4C112.472 65.2 115.539 66.6 119.605 66.6C120.939 66.6 122.172 66.5667 123.305 66.5C124.439 66.3667 125.372 66.2333 126.105 66.1V39C125.172 38.4 123.939 37.9 122.405 37.5C120.939 37.1 119.439 36.9 117.905 36.9C110.839 36.9 107.305 41.7 107.305 51.3ZM141.005 76.3C139.672 76.7 138.139 77.1 136.405 77.5C134.672 77.8333 132.839 78.1333 130.905 78.4C129.039 78.6667 127.105 78.8667 125.105 79C123.172 79.2 121.305 79.3 119.505 79.3C115.172 79.3 111.305 78.6667 107.905 77.4C104.505 76.1333 101.639 74.3333 99.3055 72C96.9721 69.6 95.1721 66.7333 93.9055 63.4C92.7055 60 92.1055 56.2 92.1055 52C92.1055 47.7333 92.6388 43.9 93.7055 40.5C94.7721 37.0333 96.3055 34.1 98.3055 31.7C100.305 29.3 102.739 27.4667 105.605 26.2C108.539 24.9333 111.872 24.3 115.605 24.3C117.672 24.3 119.505 24.5 121.105 24.9C122.772 25.3 124.439 25.8667 126.105 26.6V2.8L141.005 0.399998V76.3ZM152.457 52.1C152.457 47.4333 153.157 43.3667 154.557 39.9C156.024 36.3667 157.924 33.4333 160.257 31.1C162.59 28.7667 165.257 27 168.257 25.8C171.324 24.6 174.457 24 177.657 24C185.124 24 191.024 26.3 195.357 30.9C199.69 35.4333 201.857 42.1333 201.857 51C201.857 51.8667 201.824 52.8333 201.757 53.9C201.69 54.9 201.624 55.8 201.557 56.6H167.757C168.09 59.6667 169.524 62.1 172.057 63.9C174.59 65.7 177.99 66.6 182.257 66.6C184.99 66.6 187.657 66.3667 190.257 65.9C192.924 65.3667 195.09 64.7333 196.757 64L198.757 76.1C197.957 76.5 196.89 76.9 195.557 77.3C194.224 77.7 192.724 78.0333 191.057 78.3C189.457 78.6333 187.724 78.9 185.857 79.1C183.99 79.3 182.124 79.4 180.257 79.4C175.524 79.4 171.39 78.7 167.857 77.3C164.39 75.9 161.49 74 159.157 71.6C156.89 69.1333 155.19 66.2333 154.057 62.9C152.99 59.5667 152.457 55.9667 152.457 52.1ZM187.457 46.4C187.39 45.1333 187.157 43.9 186.757 42.7C186.424 41.5 185.857 40.4333 185.057 39.5C184.324 38.5667 183.357 37.8 182.157 37.2C181.024 36.6 179.59 36.3 177.857 36.3C176.19 36.3 174.757 36.6 173.557 37.2C172.357 37.7333 171.357 38.4667 170.557 39.4C169.757 40.3333 169.124 41.4333 168.657 42.7C168.257 43.9 167.957 45.1333 167.757 46.4H187.457ZM245.055 38.6C243.722 38.2667 242.155 37.9333 240.355 37.6C238.555 37.2 236.622 37 234.555 37C233.622 37 232.489 37.1 231.155 37.3C229.889 37.4333 228.922 37.6 228.255 37.8V78H213.355V28.2C216.022 27.2667 219.155 26.4 222.755 25.6C226.422 24.7333 230.489 24.3 234.955 24.3C235.755 24.3 236.722 24.3667 237.855 24.5C238.989 24.5667 240.122 24.7 241.255 24.9C242.389 25.0333 243.522 25.2333 244.655 25.5C245.789 25.7 246.755 25.9667 247.555 26.3L245.055 38.6ZM337.088 41.4L347.488 25.4H362.888L344.888 50.7C348.888 55.7 352.521 60.5667 355.788 65.3C359.054 70.0333 361.654 74.2667 363.588 78H347.588C347.054 77 346.388 75.7667 345.588 74.3C344.788 72.7667 343.888 71.2 342.888 69.6C341.888 67.9333 340.821 66.3 339.688 64.7C338.621 63.0333 337.554 61.5333 336.488 60.2C335.488 61.4667 334.454 62.8667 333.388 64.4C332.388 65.9333 331.421 67.5 330.488 69.1C329.554 70.6333 328.621 72.1667 327.688 73.7C326.821 75.2333 326.054 76.6667 325.388 78H310.188C310.988 76.3333 312.088 74.3667 313.488 72.1C314.888 69.8333 316.388 67.5 317.988 65.1C319.654 62.6333 321.388 60.2 323.188 57.8C324.988 55.3333 326.754 53.0333 328.488 50.9C325.488 46.7 322.488 42.4667 319.488 38.2C316.488 33.8667 313.521 29.6 310.588 25.4H326.688L337.088 41.4ZM405.259 52.1C405.259 47.5 404.225 43.8333 402.159 41.1C400.092 38.3 397.025 36.9 392.959 36.9C391.625 36.9 390.392 36.9667 389.259 37.1C388.125 37.1667 387.192 37.2667 386.459 37.4V64.3C387.392 64.9 388.592 65.4 390.059 65.8C391.592 66.2 393.125 66.4 394.659 66.4C401.725 66.4 405.259 61.6333 405.259 52.1ZM420.459 51.7C420.459 55.7667 419.959 59.4667 418.959 62.8C417.959 66.1333 416.492 69 414.559 71.4C412.625 73.8 410.225 75.6667 407.359 77C404.492 78.3333 401.192 79 397.459 79C395.392 79 393.459 78.8 391.659 78.4C389.859 78 388.125 77.4333 386.459 76.7V96.5H371.559V27.2C372.892 26.8 374.425 26.4333 376.159 26.1C377.892 25.7 379.692 25.3667 381.559 25.1C383.492 24.8333 385.425 24.6333 387.359 24.5C389.359 24.3 391.259 24.2 393.059 24.2C397.392 24.2 401.259 24.8667 404.659 26.2C408.059 27.4667 410.925 29.3 413.259 31.7C415.592 34.0333 417.359 36.9 418.559 40.3C419.825 43.7 420.459 47.5 420.459 51.7ZM429.41 52.1C429.41 47.4333 430.11 43.3667 431.51 39.9C432.977 36.3667 434.877 33.4333 437.21 31.1C439.543 28.7667 442.21 27 445.21 25.8C448.277 24.6 451.41 24 454.61 24C462.077 24 467.977 26.3 472.31 30.9C476.643 35.4333 478.81 42.1333 478.81 51C478.81 51.8667 478.777 52.8333 478.71 53.9C478.643 54.9 478.577 55.8 478.51 56.6H444.71C445.043 59.6667 446.477 62.1 449.01 63.9C451.543 65.7 454.943 66.6 459.21 66.6C461.943 66.6 464.61 66.3667 467.21 65.9C469.877 65.3667 472.043 64.7333 473.71 64L475.71 76.1C474.91 76.5 473.843 76.9 472.51 77.3C471.177 77.7 469.677 78.0333 468.01 78.3C466.41 78.6333 464.677 78.9 462.81 79.1C460.943 79.3 459.077 79.4 457.21 79.4C452.477 79.4 448.343 78.7 444.81 77.3C441.343 75.9 438.443 74 436.11 71.6C433.843 69.1333 432.143 66.2333 431.01 62.9C429.943 59.5667 429.41 55.9667 429.41 52.1ZM464.41 46.4C464.343 45.1333 464.11 43.9 463.71 42.7C463.377 41.5 462.81 40.4333 462.01 39.5C461.277 38.5667 460.31 37.8 459.11 37.2C457.977 36.6 456.543 36.3 454.81 36.3C453.143 36.3 451.71 36.6 450.51 37.2C449.31 37.7333 448.31 38.4667 447.51 39.4C446.71 40.3333 446.077 41.4333 445.61 42.7C445.21 43.9 444.91 45.1333 444.71 46.4H464.41ZM522.009 38.6C520.675 38.2667 519.109 37.9333 517.309 37.6C515.509 37.2 513.575 37 511.509 37C510.575 37 509.442 37.1 508.109 37.3C506.842 37.4333 505.875 37.6 505.209 37.8V78H490.309V28.2C492.975 27.2667 496.109 26.4 499.709 25.6C503.375 24.7333 507.442 24.3 511.909 24.3C512.709 24.3 513.675 24.3667 514.809 24.5C515.942 24.5667 517.075 24.7 518.209 24.9C519.342 25.0333 520.475 25.2333 521.609 25.5C522.742 25.7 523.709 25.9667 524.509 26.3L522.009 38.6ZM531.996 12.3L546.896 9.89999V25.4H564.796V37.8H546.896V56.3C546.896 59.4333 547.429 61.9333 548.496 63.8C549.629 65.6667 551.863 66.6 555.196 66.6C556.796 66.6 558.429 66.4667 560.096 66.2C561.829 65.8667 563.396 65.4333 564.796 64.9L566.896 76.5C565.096 77.2333 563.096 77.8667 560.896 78.4C558.696 78.9333 555.996 79.2 552.796 79.2C548.729 79.2 545.363 78.6667 542.696 77.6C540.029 76.4667 537.896 74.9333 536.296 73C534.696 71 533.563 68.6 532.896 65.8C532.296 63 531.996 59.9 531.996 56.5V12.3Z" fill="#323232"/>
<path d="M256.543 78V8.7H303.343V21.8H272.143V35.4H299.843V48.2H272.143V64.9H305.643V78H256.543Z" fill="#FBBC05"/>
</svg>
